<svg width="40" height="40" viewBox="0 0 40 40" fill="none" xmlns="http://www.w3.org/2000/svg">
<path d="M12.1946 6.2812C17.3405 5.70607 22.6595 5.70607 27.8054 6.2812C29.7374 6.49713 31.4334 7.54193 32.5063 9.05925L19.1667 22.3989L15.0506 18.2827C14.5624 17.7946 13.7709 17.7946 13.2828 18.2827C12.7946 18.7709 12.7946 19.5623 13.2828 20.0505L18.2828 25.0505C18.7709 25.5387 19.5624 25.5387 20.0506 25.0505L33.5763 11.5248C33.6137 11.7074 33.6436 11.8928 33.6656 12.0808C34.281 17.3423 34.281 22.6576 33.6656 27.9191C33.3075 30.9807 30.8494 33.3785 27.8054 33.7187C22.6595 34.2938 17.3405 34.2938 12.1946 33.7187C9.15059 33.3785 6.69242 30.9807 6.33434 27.9191C5.71896 22.6576 5.71896 17.3423 6.33434 12.0808C6.69242 9.01915 9.15059 6.62141 12.1946 6.2812Z" fill="#F8CC48"/>
</svg>
