<svg width="30" height="26" viewBox="0 0 30 26" fill="none" xmlns="http://www.w3.org/2000/svg">
<path d="M28.8321 13.3476C29.09 13.2081 29.25 12.9434 29.25 12.6561C29.25 12.3689 29.09 12.1042 28.8321 11.9647L25.1233 9.95873C17.8164 6.00674 10.1139 2.79207 2.13559 0.364812L1.05485 0.0360131C0.808142 -0.0390432 0.539473 0.00465435 0.331228 0.153706C0.12298 0.302758 0 0.53938 0 0.791014V9.8876C0 10.3083 0.338257 10.6554 0.769795 10.6775L2.41046 10.7616C6.41058 10.9665 10.3863 11.4947 14.2966 12.3407L14.6838 12.4245C14.7699 12.4431 14.8073 12.4774 14.828 12.5046C14.8542 12.539 14.8747 12.5919 14.8747 12.6561C14.8747 12.7204 14.8542 12.7733 14.828 12.8076C14.8073 12.8349 14.7699 12.8691 14.6838 12.8878L14.2966 12.9716C10.3863 13.8175 6.41057 14.3457 2.41042 14.5507L0.769795 14.6347C0.338257 14.6569 0 15.004 0 15.4247V24.5213C0 24.7729 0.122979 25.0095 0.331227 25.1586C0.539472 25.3076 0.808141 25.3513 1.05485 25.2763L2.13561 24.9474C10.1139 22.5202 17.8164 19.3055 25.1233 15.3535L28.8321 13.3476Z" fill="#CF0000"/>
</svg>
