<svg width="44" height="40" viewBox="0 0 44 40" fill="none" xmlns="http://www.w3.org/2000/svg">
<path d="M25.9671 5.66669C23.9882 5.66666 22.3931 5.66664 21.1386 5.82205C19.8361 5.98341 18.7395 6.3286 17.8685 7.13116C17.1089 7.83106 16.7251 8.69116 16.5236 9.70182C16.3279 10.6839 16.2904 11.8858 16.2817 13.3278C16.2784 13.8801 16.7615 14.3303 17.3609 14.3333C17.9603 14.3364 18.4488 13.8912 18.4522 13.3389C18.461 11.8809 18.5021 10.8475 18.6584 10.0632C18.8091 9.3074 19.051 8.86997 19.4033 8.54537C19.8038 8.17635 20.366 7.93576 21.4278 7.80422C22.5208 7.66881 23.9694 7.66669 26.0465 7.66669H27.4935C29.5706 7.66669 31.0192 7.66881 32.1122 7.80422C33.174 7.93576 33.7362 8.17635 34.1367 8.54537C34.5372 8.91439 34.7983 9.43248 34.941 10.4108C35.088 11.418 35.0903 12.7528 35.0903 14.6667V25.3334C35.0903 27.2472 35.088 28.5821 34.941 29.5892C34.7983 30.5676 34.5372 31.0857 34.1367 31.4547C33.7362 31.8237 33.174 32.0643 32.1122 32.1958C31.0192 32.3312 29.5706 32.3334 27.4935 32.3334H26.0465C23.9694 32.3334 22.5208 32.3312 21.4278 32.1958C20.366 32.0643 19.8038 31.8237 19.4033 31.4547C19.051 31.1301 18.8091 30.6926 18.6584 29.9369C18.5021 29.1526 18.461 28.1191 18.4522 26.6611C18.4488 26.1088 17.9603 25.6636 17.3609 25.6667C16.7615 25.6698 16.2784 26.12 16.2817 26.6723C16.2904 28.1143 16.3279 29.3161 16.5236 30.2982C16.7251 31.3089 17.1089 32.169 17.8685 32.8689C18.7395 33.6714 19.8361 34.0166 21.1386 34.178C22.3931 34.3334 23.9882 34.3334 25.9671 34.3334H27.5729C29.5518 34.3334 31.1469 34.3334 32.4014 34.178C33.7039 34.0166 34.8005 33.6714 35.6715 32.8689C36.5425 32.0663 36.9171 31.0558 37.0922 29.8557C37.2609 28.6997 37.2608 27.23 37.2608 25.4065V14.5935C37.2608 12.7701 37.2609 11.3003 37.0922 10.1444C36.9171 8.94421 36.5425 7.93371 35.6715 7.13116C34.8005 6.3286 33.7039 5.98341 32.4014 5.82205C31.1469 5.66664 29.5518 5.66666 27.5729 5.66669H25.9671Z" fill="white"/>
<path d="M7.23646 18.9987C6.63709 18.9987 6.1512 19.4464 6.1512 19.9987C6.1512 20.551 6.63709 20.9987 7.23646 20.9987L24.5609 20.9987L21.7238 23.2395C21.2687 23.5989 21.216 24.2302 21.6061 24.6495C21.9961 25.0688 22.6813 25.1174 23.1363 24.758L28.2009 20.758C28.4414 20.568 28.5799 20.2906 28.5799 19.9987C28.5799 19.7068 28.4414 19.4294 28.2009 19.2395L23.1363 15.2395C22.6813 14.88 21.9961 14.9286 21.6061 15.3479C21.216 15.7673 21.2687 16.3986 21.7238 16.758L24.5609 18.9987L7.23646 18.9987Z" fill="white"/>
</svg>
